<svg xmlns="http://www.w3.org/2000/svg" width="334" height="80.658" viewBox="0 0 334 80.658"><defs><style>.a{fill:#fff;}</style></defs><g transform="translate(0 0)"><path class="a" d="M623.295,168.568a2.556,2.556,0,0,1-1.613-2.511,4.138,4.138,0,0,1,1.165-3.273,2.941,2.941,0,0,1-.582-2.2,3.065,3.065,0,0,1,1.031-2.107,2.57,2.57,0,0,1-.583-1.883,2.829,2.829,0,0,1,.941-1.748c-.314-.538-.672-1.031-.493-1.659a17.162,17.162,0,0,1,.762-1.614c-.627-.672-.627-1.39.134-2.421q-5.578-6.658-11.156-13.45c.627-1.255,1.3-2.555,1.971-3.856l4.167-8.2c2.151-4.214,4.212-8.384,6.407-12.553.762-1.479,1.7-2.869,2.554-4.394.4.717.851,1.345,1.21,2.062,1.792,3.407,3.584,6.77,5.332,10.177,2.868,5.559,5.69,11.163,8.558,16.767l-11.156,13.45a1.774,1.774,0,0,1,.045,2.511,2.152,2.152,0,0,1,.314,3.138,2.935,2.935,0,0,1,.941,1.748,2.6,2.6,0,0,1-.538,1.883,3.367,3.367,0,0,1,.448,4.349c1.658,1.659,1.568,5.021-.4,5.783a10.069,10.069,0,0,1,4.66,5.335,9.67,9.67,0,0,1-.045,7.083,9.983,9.983,0,0,1-18.953-1.031A9.781,9.781,0,0,1,623.295,168.568Zm4.615,1.928a6.927,6.927,0,1,0,0,13.853,7.011,7.011,0,0,0,6.945-6.949A6.912,6.912,0,0,0,627.91,170.5Zm0-51.333a2.946,2.946,0,0,0-2.957,2.914,2.976,2.976,0,0,0,2.957,3.049,2.981,2.981,0,1,0,0-5.963Z" transform="translate(-356.771 -106.7)"/><path class="a" d="M58.771,187.257a12.5,12.5,0,0,0,3.405-.493,9.693,9.693,0,0,0,3-1.39,7.458,7.458,0,0,0,2.151-2.287,5.952,5.952,0,0,0,.806-3.139,6.575,6.575,0,0,0-1.12-3.812,13.072,13.072,0,0,0-2.868-3.05,27.664,27.664,0,0,0-4.077-2.6c-1.523-.807-3.092-1.615-4.66-2.467-1.568-.807-3.136-1.659-4.66-2.556a23.388,23.388,0,0,1-4.077-3,13.37,13.37,0,0,1-2.868-3.723,10.013,10.013,0,0,1-1.12-4.709,11.982,11.982,0,0,1,.986-4.933,11.454,11.454,0,0,1,2.912-3.947,13.832,13.832,0,0,1,4.749-2.6,20.355,20.355,0,0,1,6.452-.942,21.25,21.25,0,0,1,5.869.718,14.679,14.679,0,0,1,4.57,2.063,12.464,12.464,0,0,1,3.316,3.364,17.621,17.621,0,0,1,2.2,4.62L69.748,154.2a17.291,17.291,0,0,0-1.792-3.9,12.181,12.181,0,0,0-2.6-3.05,10.18,10.18,0,0,0-3.495-1.929,13.837,13.837,0,0,0-4.481-.673,11.192,11.192,0,0,0-3.853.628,8.178,8.178,0,0,0-2.733,1.615,7.1,7.1,0,0,0-1.658,2.242,6.23,6.23,0,0,0-.538,2.556,5.521,5.521,0,0,0,1.12,3.364,13.907,13.907,0,0,0,2.957,2.87,40.23,40.23,0,0,0,4.212,2.6c1.568.852,3.181,1.7,4.794,2.556s3.226,1.749,4.794,2.691a28.269,28.269,0,0,1,4.212,3.05,13.879,13.879,0,0,1,2.957,3.633,8.608,8.608,0,0,1,1.12,4.44,13.47,13.47,0,0,1-1.031,5.2A12.1,12.1,0,0,1,70.6,186.36a15.639,15.639,0,0,1-5.2,2.87,22.15,22.15,0,0,1-7.258,1.032,22.264,22.264,0,0,1-6-.718,15.338,15.338,0,0,1-4.66-2.153,13.849,13.849,0,0,1-3.45-3.409,17.861,17.861,0,0,1-2.33-4.62l4.167-1.7a16.414,16.414,0,0,0,1.971,4.081,13.307,13.307,0,0,0,2.868,3.05,13.047,13.047,0,0,0,3.674,1.929A20.634,20.634,0,0,0,58.771,187.257Z" transform="translate(-41.7 -125.963)"/><path class="a" d="M166.529,141.6l21.865,47.449h-7.931l-7.079-15.458H153.446l-7.3,15.458H142.2L164.558,141.6Zm-11.694,28.989h17.116l-8.423-18.37Z" transform="translate(-97.171 -125.94)"/><path class="a" d="M275.7,143.9h16.085a27.34,27.34,0,0,1,7.3.9,15.02,15.02,0,0,1,5.242,2.512,10.514,10.514,0,0,1,3.181,3.857,10.964,10.964,0,0,1,1.075,4.844,10.317,10.317,0,0,1-3.136,7.49,14.585,14.585,0,0,1-3.584,2.646,23.455,23.455,0,0,1-4.615,1.749l16.892,22.516h-9.051l-16.13-21.843H283.5v21.843h-7.8Zm7.8,22.291h4.525a15.209,15.209,0,0,0,4.839-.718,11.6,11.6,0,0,0,3.853-1.973,9.458,9.458,0,0,0,2.554-3.095,8.8,8.8,0,0,0,.9-4.081,9.856,9.856,0,0,0-.717-3.857,9.324,9.324,0,0,0-2.016-3.005,9.7,9.7,0,0,0-3.136-1.929,11.2,11.2,0,0,0-3.943-.718H283.5Z" transform="translate(-170.784 -127.233)"/><path class="a" d="M402.229,141.6l21.865,47.449h-7.931l-7.079-15.458H389.146l-7.3,15.458H377.9L400.258,141.6Zm-11.694,28.989h17.116l-8.423-18.37Z" transform="translate(-227.159 -125.94)"/><path class="a" d="M511.4,143.9h7.8v20.587L543.615,143.9h5.063l-23.164,19.555,29.392,26.911h-9.947L519.2,166.819v23.592h-7.8Z" transform="translate(-300.804 -127.233)"/><path class="a" d="M700.5,143.9h4.391l30.423,34h.358v-34h3.45v47.542h-1.837l-32.977-37.764h-.269v36.688h-3.495V143.9Z" transform="translate(-405.122 -127.233)"/></g></svg>